<?xml version="1.0" encoding="iso-8859-1"?>
<!-- Generator: Adobe Illustrator 19.0.0, SVG Export Plug-In . SVG Version: 6.00 Build 0)  -->
<svg version="1.1" id="Layer_1" xmlns="http://www.w3.org/2000/svg" xmlns:xlink="http://www.w3.org/1999/xlink" x="0px" y="0px"
	 viewBox="0 0 512 512" style="enable-background:new 0 0 512 512;" xml:space="preserve">
<g transform="translate(1 1)">
	<g>
		<g>
			<path d="M476.867,135.533h-0.825c-3.86-19.681-20.878-34.133-41.841-34.133H301.933l-40.107-47.787
				C260.12,51.053,257.56,50.2,255,50.2H67.267c-18.773,0-34.133,15.36-34.133,34.133v51.2C14.36,135.533-1,150.893-1,169.667v256
				C-1,444.44,14.36,459.8,33.133,459.8h443.733c18.773,0,34.133-15.36,34.133-34.133v-256
				C511,150.893,495.64,135.533,476.867,135.533z M50.2,84.333c0-9.387,7.68-17.067,17.067-17.067h183.467l40.107,47.787
				c1.707,2.56,4.267,3.413,6.827,3.413H434.2c11.093,0,20.48,6.827,23.893,17.067h-65.707h-85.333H50.2V84.333z M314.733,152.6H383
				v107.52l-28.16-28.16c-3.413-3.413-8.533-3.413-11.947,0l-28.16,28.16V152.6z M493.933,425.667
				c0,9.387-7.68,17.067-17.067,17.067H33.133c-9.387,0-17.067-7.68-17.067-17.067v-256c0-9.387,7.68-17.067,17.067-17.067h8.533
				H298.52v113.493c0,5.973,3.413,11.093,8.533,13.653c5.12,1.707,11.093,0.853,15.36-3.413l26.453-26.453l26.453,26.453
				c2.56,2.56,6.827,4.267,10.24,4.267c1.707,0,3.413,0,6.827-0.853c5.12-2.56,8.533-7.68,8.533-13.653V152.6h67.413h8.533
				c9.387,0,17.067,7.68,17.067,17.067V425.667z"/>
			<path d="M161.133,186.733h-102.4c-5.12,0-8.533,3.413-8.533,8.533s3.413,8.533,8.533,8.533h102.4c5.12,0,8.533-3.413,8.533-8.533
				S166.253,186.733,161.133,186.733z"/>
			<path d="M161.133,220.867h-102.4c-5.12,0-8.533,3.413-8.533,8.533c0,5.12,3.413,8.533,8.533,8.533h102.4
				c5.12,0,8.533-3.413,8.533-8.533C169.667,224.28,166.253,220.867,161.133,220.867z"/>
		</g>
	</g>
</g>
<g>
</g>
<g>
</g>
<g>
</g>
<g>
</g>
<g>
</g>
<g>
</g>
<g>
</g>
<g>
</g>
<g>
</g>
<g>
</g>
<g>
</g>
<g>
</g>
<g>
</g>
<g>
</g>
<g>
</g>
</svg>
