<?xml version="1.0" encoding="UTF-8"?>
<!DOCTYPE svg PUBLIC "-//W3C//DTD SVG 1.1//EN" "http://www.w3.org/Graphics/SVG/1.1/DTD/svg11.dtd">
<!-- Creator: CorelDRAW 2019 (64-Bit) -->
<svg xmlns="http://www.w3.org/2000/svg" xml:space="preserve" width="296.681mm" height="102.657mm" version="1.1" style="shape-rendering:geometricPrecision; text-rendering:geometricPrecision; image-rendering:optimizeQuality; fill-rule:evenodd; clip-rule:evenodd"
viewBox="0 0 29661.66 10263.5"
 xmlns:xlink="http://www.w3.org/1999/xlink">
 <defs>
  <style type="text/css">
   <![CDATA[
    .fil4 {fill:#F9C7F1}
    .fil0 {fill:#FF0DA1}
    .fil2 {fill:white}
    .fil1 {fill:#F9C7F1;fill-rule:nonzero}
    .fil3 {fill:white;fill-rule:nonzero}
   ]]>
  </style>
 </defs>
 <g id="Layer_x0020_1">
  <metadata id="CorelCorpID_0Corel-Layer"/>
  <g id="_2124630514128">
   <path class="fil0" d="M5535.82 2245.66l1062.28 -1712.68c78.28,-126.2 200.31,-223.15 343.77,-263.86 125.6,-35.64 270.29,-25.73 376.04,56.88 9.22,7.2 17.93,14.79 26.13,22.73l563.84 545.52c57.96,56.08 90.98,129.95 100.64,211.21l257.03 2163.04 2390 44.71c95.1,1.78 184.86,32.17 251.99,95.89 0.36,0.34 0.73,0.69 1.1,1.03 0.37,0.36 0.76,0.71 1.13,1.07l563.84 545.52c14.62,14.15 28.13,29.89 40.37,47.31 70,99.63 78.83,227.64 45.46,342.25 -38.3,131.54 -128.24,241.67 -241.03,317.43l-1094.48 735.16c250.25,411.54 421.09,878.4 426.45,1363.91 6.07,548.81 -298.38,1102.98 -671.81,1488.41 -72.69,75.02 -164.85,66.38 -216.69,16.23l-563.84 -545.52c-0.5,-0.49 -0.98,-0.99 -1.48,-1.49l-0.14 -0.14c-40.44,-40.49 -55.12,-106.82 -14.13,-177.96 302.29,-524.6 348.77,-1062.42 198.83,-1577.4l-673.75 452.85c-90.61,60.9 -174.14,172.98 -170.76,286.73l78.26 2639.44c1.3,44.1 -3.99,88.03 -15.24,130.67 -26.17,99.16 -83.56,188.21 -157.25,258.82 -160.68,153.99 -429.8,239.53 -622.07,90.9l-1919.01 -1483.25c-78.99,-61.06 -201.57,-30.4 -279.86,15.46l-2695.64 1579.29c-165.6,97.02 -385.78,118.07 -530.75,-22.2l-563.84 -545.52c-6.41,-6.2 -12.68,-12.72 -18.78,-19.56 -118.89,-133.2 -106.78,-317.04 -27.04,-466.57l600.21 -1125.65c-156.67,-121.98 -307.63,-252.05 -450.18,-389.97l-563.84 -545.52c-5.03,-4.87 -10.04,-9.76 -15.05,-14.65 -1.03,-1.01 -2.07,-2.01 -3.1,-3.02 -225.52,-220.35 -429.48,-460.55 -601,-719.72 -354.12,-535.12 -578.61,-1175.77 -478.54,-1822.89 44.44,-287.33 150.21,-555.95 308.76,-799.37 450.26,-691.29 1247.78,-1073.39 2029.39,-1252.06 467.77,-106.93 953.16,-148.51 1432.46,-140.85 500.75,7.99 1002.15,69.85 1491.34,177.38zm-2887.04 5017.63c-369.17,-431.43 -674.66,-937.84 -720.15,-1460.33 -26.99,-310.08 41.44,-599.31 190.91,-864.8l1107.4 1055.85c37.24,64.97 17.65,153.34 -16.3,216.92l-561.86 1052.36z"/>
   <path class="fil1" d="M2667.89 7439.75l630.93 -1181.73c73.38,-137.39 62.73,-282.41 -27.43,-367.69l-1736.44 -1655.61c-795.43,1209.98 298.79,2482.1 1132.94,3205.03zm2397.95 -4246.91l98.58 -159.81c-1135.87,-130.84 -2210.59,63.77 -2951.24,544.19l2477.23 -148.38c143.88,-8.3 292.15,-101.75 375.43,-236.01zm-4399.43 322.91c783.35,-1202.35 2825.56,-1636.32 4916.89,-1156.97l1099.76 -1773.1c191.46,-308.01 626.26,-317.14 662.34,-13.95l305.07 2567.26c0.16,5.77 2.37,9.97 3.15,15.69 119.09,67.25 235.09,136.78 346.91,208.84l2653.14 49.64c323.87,5.71 354.13,414.08 45.14,622.02l-1174.87 789.16c295.69,458.14 457.2,934.37 462.62,1394.01 4.83,467.93 -239.13,1000.28 -643.65,1417.73 -49.68,51.33 -108.59,15.69 -74.01,-43.87 486.01,-843.85 337.56,-1714.39 -192.82,-2467.25l-988.34 664.29c-133.76,89.42 -218.96,236.79 -214.93,372.67l78.26 2639.44c9.42,312.27 -406.69,573.05 -633.48,398.33l-1919.01 -1483.25c-98.51,-76.08 -253.3,-72.89 -391.53,8.3l-2695.64 1579.29c-318.75,186.37 -606.1,-60.4 -437.81,-375.02l707.03 -1325.97c-1890.4,-1107.39 -2742.15,-2815.83 -1914.2,-4087.28z"/>
   <path class="fil2" d="M9375.89 7515.97c70.55,-79.6 137.89,-165.85 199.79,-257.11 195.64,-614.9 91.82,-1237.3 -235.29,-1811.52 343.08,658.59 392.19,1375.39 35.5,2068.63zm253.94 -2396.43c-34.59,-66.08 -71.48,-130.87 -110.3,-194.24 0.63,9.39 3.58,18.75 9.03,27.19 35.22,54.57 69.04,110.3 101.27,167.04zm1221.85 -1499.56c-5.42,-25.24 -15.23,-49.39 -30.38,-70.95 -39.2,-55.79 -102.71,-77.16 -168.71,-78.4l-2653.14 -49.64c-11.15,-0.21 -20.67,-3.11 -30.04,-9.15 -106.85,-68.86 -215.89,-134.35 -326.43,-197.14l3.13 26.33c0.54,7.29 2.05,13.13 3.85,20.43 2.15,16.38 12.16,31.13 28.31,40.25 116.56,65.82 231.52,134.6 344.05,207.11 9.38,6.04 18.9,8.94 30.04,9.15l2653.14 49.64c54.54,1.02 107.37,15.81 146.19,52.37zm-3567.02 -3063.75c-8.88,-41.8 -28.83,-78.92 -63.69,-106.16 -65.35,-51.05 -159.74,-51.16 -236.15,-29.48 -105.66,29.98 -195.39,102.59 -252.95,195.39l-1099.76 1773.1c-13.18,21.25 -37.3,31.3 -61.67,25.72 -500.52,-114.73 -1014.88,-180.91 -1528.49,-189.1 -466.62,-7.45 -939.47,32.81 -1394.87,136.91 -739.86,169.13 -1505.75,529.24 -1932.55,1184.51 -146.37,224.7 -244.08,472.24 -285.1,737.5 -81.79,528.85 71.4,1053.93 331.47,1512.06 -227.42,-434.54 -354.63,-923.18 -278.56,-1415.07 41.02,-265.26 138.73,-512.8 285.1,-737.5 426.8,-655.27 1192.69,-1015.38 1932.55,-1184.51 455.4,-104.1 928.25,-144.36 1394.87,-136.91 513.61,8.19 1027.97,74.37 1528.49,189.1 24.36,5.58 48.49,-4.48 61.67,-25.72l1099.76 -1773.1c57.56,-92.8 147.29,-165.4 252.95,-195.39 76.41,-21.68 170.8,-21.57 236.15,29.48 3.77,2.94 7.36,6 10.78,9.17zm-4654.15 7075.33l-706.24 1324.49c-47.59,89.26 -67.58,205.71 5.58,287.66 2.98,3.33 6.03,6.53 9.13,9.58 -13.71,-66.41 5.87,-139.6 38.2,-200.25l707.03 -1325.97c14.51,-27.21 4.95,-61.03 -21.66,-76.61 -10.69,-6.26 -21.37,-12.56 -32.04,-18.9zm2484.22 -4408.54c-88.39,143.29 -250.71,253 -420.89,263.2l-2468.95 147.88c-14.89,15.07 -20.29,37.09 -13.4,58.08 8.27,25.12 31.62,40.99 58.03,39.41l2477.23 -148.38c170.18,-10.2 332.5,-119.91 420.89,-263.2l98.58 -159.81c10.63,-17.22 11.63,-37.03 2.8,-55.24 -8.84,-18.22 -25.02,-29.69 -45.12,-32l-15.54 -1.73 -93.63 151.79zm-2484.48 4260.16c-309.9,-268.58 -605.54,-567.46 -852.1,-895.69 -93.3,-124.2 -181.88,-256.01 -260.35,-393.98 90.55,173.38 198.32,337.97 313.26,490.97 246.57,328.23 542.2,627.1 852.1,895.69 13.66,11.84 30.32,16.37 48.1,13.08 17.78,-3.29 31.7,-13.49 40.22,-29.43l630.93 -1181.73c69.22,-129.67 81.75,-293.85 -13.69,-409.69 32.41,100.59 12.3,216.19 -39.22,312.7l-630.93 1181.73c-8.52,15.95 -22.45,26.14 -40.22,29.43 -17.78,3.29 -34.44,-1.24 -48.1,-13.08z"/>
   <path class="fil0" d="M17235.14 3901.82c30.02,-56.97 86.57,-90.54 158.66,-90.54l1822.18 0c37.26,0 73.39,7.65 101.5,33.43l118.97 109.11c15.36,-22.99 33.87,-44.16 55.24,-63.4 57.05,-51.39 125.92,-79.14 202.8,-79.14l1699.7 0c65.11,0 125.04,18.92 170.65,60.75 72.46,66.46 144.93,132.9 217.38,199.35 12.2,-71.5 48.09,-132.36 102.05,-180.95 57.05,-51.39 125.92,-79.14 202.8,-79.14l1822.19 0c63.28,0 120.13,20.07 164.35,60.62 120.26,110.31 240.55,220.58 360.82,330.88 12.47,11.43 23.92,24.48 34.24,39.18 37.53,53.46 58.34,114.05 58.34,179.6 0,4.9 -0.29,9.07 -0.97,13.92l-226.04 1608.35c-7.29,47.68 -23.58,89.63 -46.61,126.64l0.4 0 547.42 0c63.2,0 120.06,20.02 164.32,60.61 68.31,62.63 136.61,125.27 204.92,187.91 109.11,-781.2 217.25,-1563.97 332.1,-2343.94 11.58,-73.09 47.79,-135.2 102.67,-184.62 57.05,-51.39 125.93,-79.14 202.81,-79.14l547.41 0c63.28,0 120.13,20.07 164.35,60.62 53.59,49.15 107.19,98.3 160.79,147.44 17.8,-49.38 48.05,-92.58 88.39,-128.91 57.05,-51.39 125.92,-79.14 202.8,-79.14l1822.19 0c63.28,0 120.13,20.07 164.35,60.62 120.27,110.29 240.55,220.58 360.82,330.88 12.47,11.43 23.92,24.48 34.24,39.18 37.53,53.46 58.34,114.05 58.34,179.6 0,4.93 -0.3,9.13 -0.99,14.01l-359.97 2543.3c-11.11,73.82 -45.43,137.54 -101,187.41 -56.47,50.68 -124.86,77.11 -200.76,77.11l-1818.36 0c-69.55,0 -134.25,-20.74 -185.35,-67.59l-148.18 -135.88c-16.78,47.49 -44.45,89.69 -82.7,125.21 -55.7,51.72 -124.11,78.25 -200.1,78.25l-547.42 0c-69.56,0 -134.27,-20.74 -185.37,-67.61l-193.86 -177.77c-13.7,65.76 -46.89,122.78 -97.59,168.27 -56.48,50.68 -124.86,77.1 -200.76,77.1l-543.6 0c-68.02,0 -129.69,-23.68 -181.49,-67.68 -2.79,-2.37 -5.52,-4.78 -8.19,-7.23l-192.21 -176.26c-12.88,68.22 -46.6,127.23 -98.77,174.05 -56.47,50.68 -124.86,77.11 -200.76,77.11l-543.6 0c-68.13,0 -131.69,-19.94 -181.55,-65.66l-244.18 -223.91 -3.64 24.73c-10.74,72.95 -43.85,136.43 -97.88,186.59 -55.7,51.71 -124.1,78.24 -200.09,78.24l-547.43 0c-69.55,0 -134.25,-20.74 -185.35,-67.59l-206.92 -189.75c-11.83,70.86 -46.13,132 -99.86,180.22 -56.47,50.68 -124.86,77.11 -200.76,77.11l-505.32 0c-67.04,0 -131.18,-17.48 -179.35,-61.65l-246.64 -226.16 -3.38 22.98c-10.89,73.98 -45.42,137.8 -101.05,187.72 -56.47,50.68 -124.86,77.11 -200.76,77.11l-463.21 0c-66.04,0 -129.43,-17.04 -176.7,-60.39 -120.27,-110.3 -240.55,-220.58 -360.82,-330.88 -10.68,-9.79 -20.53,-20.92 -29.4,-33.49 -38.69,-54.85 -54.65,-118.99 -54.65,-185.52 0,-4.88 0.29,-9.04 0.97,-13.87l293.75 -2097.7 -160.53 0 -347.8 2457.35c-11.12,73.81 -45.44,137.53 -101,187.39 -56.47,50.68 -124.86,77.11 -200.76,77.11l-543.6 0c-69.56,0 -134.25,-20.73 -185.35,-67.58l-360.82 -330.88c-2.62,-2.41 -5.21,-4.88 -7.76,-7.43 -49.42,-49.3 -75.31,-111.69 -75.31,-181.49 0,-12.27 1.44,-24.31 4.69,-35.93l299.56 -2116.54c-14.34,-6.63 -27.37,-15.08 -38.6,-25.36l-52.71 -48.33c-30.61,57.77 -88.16,91.69 -161.75,91.69l-1003.97 0 -178.84 1286.28 485.12 0c63.39,0 120.31,20.08 165.12,60.3l0.43 0.39c0.48,0.43 0.96,0.85 1.44,1.29l360.82 330.88c11.61,10.64 22.38,22.65 32.21,36.03 39.38,53.55 61.55,114.77 61.55,181.38 0,5.13 -0.32,9.5 -1.07,14.57l-80.38 545.9c-10.58,71.87 -42.32,135.03 -94.69,185.38 -56.79,54.61 -128.77,79.45 -207.11,79.45l-1818.36 0c-47.22,0 -88.35,-14.87 -117.74,-41.82l-360.82 -330.88c-29.61,-27.15 -47.31,-66.58 -47.31,-115.41 0,-4.81 0.28,-8.91 0.94,-13.67l30.85 -223.54 -950.83 0 -67.82 460.49c-10.74,72.95 -43.85,136.43 -97.88,186.59 -55.71,51.71 -124.11,78.24 -200.1,78.24l-547.42 0c-69.55,0 -134.25,-20.74 -185.35,-67.59l-206.94 -189.76c-12.21,70.77 -46.08,131.99 -99.84,180.23 -56.47,50.68 -124.86,77.11 -200.76,77.11l-467.04 0c-68.13,0 -131.7,-19.94 -181.56,-65.66l-244.27 -223.99 -3.22 22.51c-8.04,74.88 -41.38,139.64 -97.54,190.04 -56.47,50.67 -124.87,77.1 -200.76,77.1l-467.04 0c-69.55,0 -134.25,-20.74 -185.35,-67.6l-240.69 -220.71 -3.37 23.78c-10.79,71.7 -42.35,134.78 -94.64,185.07 -56.79,54.61 -128.77,79.45 -207.11,79.45l-463.22 0c-69.56,0 -134.26,-20.74 -185.36,-67.6l-211.28 -193.75 -25 175.47c-7.07,49.6 -48.88,85.87 -98.98,85.87l-1726.48 0c-123.42,0 -260.21,-21.64 -352.99,-106.72l-242.04 -221.95c-0.88,2.34 -1.76,4.67 -2.66,7 -22.79,59.07 -54.75,113.5 -96.31,161.3 -43.16,49.67 -95.79,88.35 -155.25,116.43 -68.23,32.22 -143.83,43.93 -218.79,43.93l-1745.63 0c-25.79,0 -48.49,-8.7 -66.86,-25.53l-360.82 -330.88c-2.97,-2.73 -5.84,-5.68 -8.58,-8.83 -19.67,-22.62 -27.73,-49.79 -23.58,-79.46l405.79 -2901.27c6.96,-49.71 48.82,-86.13 99.02,-86.13l1680.53 0c117.59,0 235.62,25.6 323.49,103.38 0.88,0.77 1.76,1.55 2.64,2.34 0.66,0.58 1.33,1.16 1.98,1.76l221.18 202.83 6.46 -45.76c11.26,-74.89 46.97,-138.86 104.12,-188.51 57.21,-49.68 125.64,-76.03 201.46,-76.03l547.43 0c68.39,0 132.94,19.6 184.06,66.14l235.26 215.73 2.44 -17.33c11.1,-73.83 45.43,-137.56 101,-187.43 57.45,-51.56 127.49,-77.11 204.6,-77.11l731.17 0c25.78,0 48.49,8.7 66.85,25.53l164.59 150.93c18.07,-36.4 43.41,-68.96 74.9,-97.32 57.05,-51.39 125.91,-79.14 202.79,-79.14l2855.8 0c63.38,0 120.3,20.08 165.12,60.3l0.45 0.4c0.48,0.43 0.96,0.85 1.44,1.29l220.36 202.08 0.04 -0.28c11.56,-73.1 47.79,-135.22 102.67,-184.64 57.05,-51.39 125.92,-79.14 202.8,-79.14l1822.19 0c63.28,0 120.12,20.07 164.34,60.61l160.8 147.46c17.8,-49.38 48.04,-92.59 88.39,-128.92 57.05,-51.39 125.93,-79.14 202.81,-79.14l1822.18 0c43.1,0 87.35,10.72 116.88,37.8l57.52 52.74z"/>
   <path class="fil3" d="M4194.41 3911.26l1680.53 0c130.16,0 224.59,34.99 283.29,104.98 58.69,69.98 88.05,159.7 88.05,269.13 0,15.28 -0.65,30.54 -1.92,45.81 -1.27,15.27 -3.19,31.81 -5.75,49.63l-283.27 2019.43c-10.21,53.45 -24.88,104.99 -44.03,154.62 -19.14,49.62 -45.3,93.52 -78.48,131.7 -33.17,38.17 -74,68.72 -122.49,91.62 -48.49,22.91 -107.19,34.35 -176.09,34.35l-1745.63 0 405.79 -2901.27zm826.87 2676.04l344.53 -2496.62 -367.49 0 -344.54 2496.62 367.5 0z"/>
   <path id="1" class="fil3" d="M6529.56 4090.68c7.65,-50.9 31.25,-93.53 70.81,-127.88 39.55,-34.36 84.85,-51.54 135.89,-51.54l547.43 0c48.49,0 87.4,13.36 116.75,40.08 29.35,26.72 44.03,64.27 44.03,112.62l-340.71 2389.73c0,5.09 -0.64,9.55 -1.92,13.36 -1.27,3.82 -1.91,8.28 -1.91,13.37 0,71.25 43.39,106.89 130.15,106.89l222.03 0 352.19 -2496.62c7.65,-50.9 30.62,-93.53 68.91,-127.88 38.28,-34.36 84.22,-51.54 137.82,-51.54l731.17 0 -413.45 2901.27 -1726.48 0c-155.68,0 -260.31,-37.54 -313.91,-112.62 -53.59,-75.07 -80.38,-187.69 -80.38,-337.85 0,-12.73 0.64,-22.27 1.91,-28.63 1.28,-6.36 3.19,-12.09 5.75,-17.18l313.91 -2225.58z"/>
   <path id="2" class="fil3" d="M11908.08 6633.11c-7.66,50.9 -30.62,93.53 -68.91,127.88 -38.28,34.36 -82.94,51.54 -133.98,51.54l-467.04 0c-51.04,0 -91.24,-15.27 -120.58,-45.81 -29.34,-30.54 -44.03,-67.45 -44.03,-110.71 0,-5.09 0.65,-8.91 1.92,-11.45 1.27,-2.55 1.92,-6.37 1.92,-11.46l359.84 -2542.43 -363.68 0 -363.67 2542.43c-5.1,50.9 -26.78,93.53 -65.08,127.88 -38.28,34.36 -82.94,51.54 -133.98,51.54l-467.04 0c-51.04,0 -91.87,-15.27 -122.49,-45.81 -30.62,-30.54 -45.94,-67.45 -45.94,-110.71 0,-5.09 0.64,-8.91 1.92,-11.45 1.27,-2.55 1.9,-6.37 1.9,-11.46l359.85 -2542.43 -363.67 0 -359.84 2542.43c-7.66,50.9 -29.35,93.53 -65.08,127.88 -35.73,34.36 -81.67,51.54 -137.81,51.54l-463.22 0c-51.04,0 -91.86,-15.27 -122.49,-45.81 -30.62,-30.54 -45.94,-67.45 -45.94,-110.71 0,-5.09 1.28,-8.91 3.83,-11.45 2.55,-2.55 3.84,-6.37 3.84,-11.46l356.01 -2542.43c7.65,-48.36 31.26,-90.35 70.82,-125.97 39.55,-35.63 84.84,-53.45 135.88,-53.45l2855.8 0c51.04,0 90.59,19.09 118.67,57.26 28.07,38.18 42.1,78.9 42.1,122.16l-359.84 2542.43z"/>
   <path id="3" class="fil3" d="M14522.69 5907.8c-7.66,48.35 -31.27,90.34 -70.82,125.97 -39.56,35.63 -84.85,53.44 -135.9,53.44l-1091.02 0 -80.38 545.9c-7.66,50.9 -29.98,93.53 -67,127.88 -37,34.36 -81.02,51.54 -132.07,51.54l-547.42 0c-51.04,0 -91.87,-15.27 -122.49,-45.81 -30.63,-30.54 -45.94,-67.45 -45.94,-110.71 0,-5.09 1.27,-8.91 3.83,-11.45 2.55,-2.55 3.83,-6.37 3.83,-11.46l356.01 -2542.43c7.65,-48.36 31.26,-90.35 70.82,-125.97 39.55,-35.63 84.85,-53.45 135.89,-53.45l1822.19 0c51.04,0 89.96,19.09 116.75,57.26 26.8,38.18 40.2,78.9 40.2,122.16l-256.48 1817.11zm-911.1 0l252.67 -1817.11 -356.02 0 -256.48 1817.11 359.84 0z"/>
   <path id="4" class="fil3" d="M16777.46 6633.11c-7.66,50.9 -29.34,93.53 -65.08,127.88 -35.73,34.36 -81.67,51.54 -137.82,51.54l-1818.36 0c-43.38,0 -65.08,-19.09 -65.08,-57.26l57.43 -416.11c2.55,-45.81 29.34,-68.72 80.39,-68.72l1309.22 0 22.97 -183.24 -1228.83 0c-45.93,0 -84.21,-14.63 -114.85,-43.9 -30.61,-29.26 -45.93,-65.53 -45.93,-108.8 0,-2.54 2.55,-11.45 7.66,-26.71l252.66 -1817.11c7.66,-48.36 31.26,-90.35 70.82,-125.97 39.55,-35.63 84.85,-53.45 135.9,-53.45l1822.18 0c33.17,0 50.41,6.36 51.68,19.09 1.28,12.73 4.46,29.26 9.57,49.63l-3.82 38.17c-7.66,48.36 -35.73,72.53 -84.23,72.53l-1091.01 0 -252.66 1817.11 1006.79 0c51.06,0 90.61,19.09 118.67,57.26 28.07,38.17 42.11,78.89 42.11,122.15l-80.38 545.9z"/>
   <path id="5" class="fil3" d="M18358.49 6633.11c-7.67,50.9 -30.63,93.53 -68.92,127.88 -38.28,34.36 -82.94,51.54 -133.98,51.54l-543.6 0c-51.04,0 -91.87,-15.27 -122.5,-45.81 -30.61,-30.54 -45.94,-67.45 -45.94,-110.71 0,-5.09 0.65,-8.91 1.92,-11.45 1.28,-2.55 1.92,-6.37 1.92,-11.46l359.84 -2542.43 -432.58 0c-45.94,0 -68.91,-15.27 -68.91,-45.81 0,-5.09 0.63,-9.55 1.92,-13.36 1.27,-3.82 1.9,-8.28 1.9,-13.37l3.83 -38.17c7.66,-45.81 34.46,-68.72 80.4,-68.72l1822.18 0c17.87,0 29.35,2.55 34.45,7.64 5.11,5.09 7.65,10.82 7.65,17.18 0,6.36 0.65,13.36 1.92,21 1.28,7.64 8.3,15.27 21.06,22.91l-3.82 38.17c-12.77,48.36 -40.84,72.53 -84.23,72.53l-474.68 0 -359.84 2542.43z"/>
   <path id="6" class="fil3" d="M21195.11 6633.11c-7.65,50.9 -30.61,93.53 -68.9,127.88 -38.28,34.36 -82.94,51.54 -133.99,51.54l-505.31 0c-58.7,0 -100.81,-17.18 -126.32,-51.54 -25.52,-34.35 -38.29,-76.98 -38.29,-127.88l84.23 -545.9 -367.51 0 -80.38 545.9c-7.66,50.9 -30.63,93.53 -68.92,127.88 -38.28,34.36 -82.94,51.54 -133.98,51.54l-463.21 0c-58.69,0 -100.17,-17.18 -124.41,-51.54 -24.23,-34.35 -36.36,-76.98 -36.36,-127.88l356.01 -2542.43c7.66,-48.36 31.26,-90.35 70.82,-125.97 39.55,-35.63 84.85,-53.45 135.89,-53.45l1699.7 0c56.15,0 96.98,19.09 122.49,57.26 25.52,38.18 38.28,78.9 38.28,122.16l-359.85 2542.43zm-769.44 -725.31l256.47 -1817.11 -363.66 0 -248.83 1817.11 356.01 0z"/>
   <path id="7" class="fil3" d="M23756.14 6289.53l-49.76 343.58c-7.67,50.9 -30.63,93.53 -68.92,127.88 -38.27,34.36 -82.94,51.54 -133.98,51.54l-543.6 0c-51.04,0 -91.23,-15.27 -120.57,-45.81 -29.34,-30.54 -44.02,-67.45 -44.02,-110.71 0,-5.09 0.63,-8.91 1.91,-11.45 1.27,-2.55 1.92,-6.37 1.92,-11.46l65.08 -458.09c0,-58.54 -40.84,-87.81 -122.5,-87.81l-229.69 0 -80.39 545.9c-7.66,50.9 -29.98,93.53 -67,127.88 -37,34.36 -81.02,51.54 -132.06,51.54l-547.43 0c-51.04,0 -91.87,-15.27 -122.49,-45.81 -30.63,-30.54 -45.94,-67.45 -45.94,-110.71 0,-5.09 1.27,-8.91 3.83,-11.45 2.55,-2.55 3.83,-6.37 3.83,-11.46l356.01 -2542.43c7.66,-48.36 31.26,-90.35 70.82,-125.97 39.55,-35.63 84.85,-53.45 135.89,-53.45l1822.19 0c51.04,0 89.96,19.09 116.76,57.26 26.79,38.18 40.19,78.9 40.19,122.16l-225.86 1607.15c-22.97,150.16 -182.47,251.96 -478.51,305.39 262.85,63.63 394.28,153.98 394.28,271.04l0 15.27zm-604.84 -2198.85l-356.01 0 -256.49 1817.11 225.86 0c86.77,0 136.54,-40.72 149.31,-122.16l237.34 -1694.95z"/>
   <path id="8" class="fil3" d="M24931.38 6633.11c-7.66,50.9 -30.62,93.53 -68.91,127.88 -38.29,34.36 -82.94,51.54 -133.98,51.54l-543.6 0c-43.38,0 -82.3,-14.64 -116.76,-43.9 -34.44,-29.26 -51.68,-64.26 -51.68,-104.98 0,-17.82 1.28,-27.99 3.83,-30.54l30.63 -183.24c5.1,-48.35 27.42,-90.34 66.99,-125.97 39.56,-35.63 84.86,-53.45 135.9,-53.45l547.42 0c51.04,0 89.96,19.09 116.75,57.27 26.8,38.17 40.2,78.89 40.2,122.15l-26.79 183.24z"/>
   <path id="9" class="fil3" d="M26152.55 6633.11c-7.66,50.9 -29.99,93.53 -67,127.88 -37,34.36 -81.03,51.54 -132.07,51.54l-547.42 0c-51.04,0 -91.87,-15.27 -122.5,-45.81 -30.62,-30.54 -45.94,-67.45 -45.94,-110.71 0,-5.09 0.65,-8.91 1.92,-11.45 1.27,-2.55 1.92,-6.37 1.92,-11.46l359.84 -2542.43c7.66,-48.36 31.26,-90.35 70.82,-125.97 39.55,-35.63 84.85,-53.45 135.9,-53.45l547.41 0c51.04,0 89.96,19.09 116.76,57.26 26.79,38.18 40.19,78.9 40.19,122.16l-359.84 2542.43z"/>
   <path id="10" class="fil3" d="M28591.06 6633.11c-7.66,50.9 -30.62,93.53 -68.91,127.88 -38.27,34.36 -82.94,51.54 -133.98,51.54l-1818.36 0c-51.04,0 -91.87,-15.27 -122.49,-45.81 -30.63,-30.54 -45.94,-67.45 -45.94,-110.71 0,-5.09 1.27,-8.91 3.83,-11.45 2.55,-2.55 3.83,-6.37 3.83,-11.46l356.01 -2542.43c7.65,-48.36 31.26,-90.35 70.82,-125.97 39.55,-35.63 84.85,-53.45 135.89,-53.45l1822.19 0c51.04,0 89.96,19.09 116.76,57.26 26.79,38.18 40.19,78.9 40.19,122.16l-359.85 2542.43zm-903.43 -45.81l348.36 -2496.62 -356.02 0 -352.18 2496.62 359.84 0z"/>
   <path class="fil4" d="M4236.14 3959.23l-392.37 2805.33 119.79 0 382.82 -2737.01 1638.8 0c44.21,0 91.16,4.22 134.51,17.44 -59.83,-69.36 -157.63,-85.75 -244.75,-85.75l-1638.8 0zm785.14 2676.04l-302.88 0 -1.9 13.79c-1.96,14.23 1.92,27.24 11.36,38.07 9.44,10.83 21.8,16.46 36.16,16.46l367.5 0c24.11,0 44.22,-17.53 47.52,-41.41l344.53 -2496.62c1.96,-14.23 -1.92,-27.24 -11.36,-38.07 -9.44,-10.83 -21.8,-16.46 -36.16,-16.46l-64.62 0 -342.63 2482.83c-3.3,23.88 -23.4,41.41 -47.52,41.41zm3655.92 -2607.72l9.74 -68.32 -675.88 0c-40.6,0 -75.5,12.1 -105.78,39.27 -29.98,26.9 -47.53,59.48 -53.45,98.88l-352.18 2496.62c-3.36,23.82 -23.43,41.27 -47.5,41.27l-222.04 0c-16.61,0 -32.58,-1.26 -47.7,-3.85 29.41,50.08 88.23,72.16 157.94,72.16l222.04 0c24.06,0 44.14,-17.45 47.5,-41.27l352.18 -2496.62c5.92,-39.4 23.46,-71.97 53.45,-98.88 30.27,-27.17 65.18,-39.27 105.78,-39.27l555.91 0zm-1284.95 0c-4.08,-15.29 -11.53,-29.29 -24.08,-40.73 -23.28,-21.21 -53.71,-27.58 -84.46,-27.58l-547.43 0c-40.15,0 -74.15,13.49 -104.44,39.78 -30.56,26.55 -48.81,58.74 -54.77,98.37l-313.91 2225.58c-0.77,5.43 -2.18,9.96 -4.65,14.86 -0.75,1.5 -1.24,3.41 -1.56,5.04 -1.09,5.4 -0.98,13.71 -0.98,19.22 0,99.19 11.94,226.61 71.45,309.97 26.36,36.93 67.9,59.48 113.78,73.05 -1.2,-1.56 -2.39,-3.13 -3.54,-4.74 -59.52,-83.36 -71.45,-210.78 -71.45,-309.97 0,-5.51 -0.11,-13.82 0.98,-19.22 0.32,-1.63 0.81,-3.54 1.56,-5.04 2.47,-4.9 3.88,-9.43 4.65,-14.86l313.91 -2225.58c5.96,-39.63 24.2,-71.81 54.77,-98.37 30.28,-26.29 64.29,-39.78 104.44,-39.78l545.74 0zm4813.36 0c-5,-10.58 -11.19,-20.77 -18.43,-30.61 -20.11,-27.32 -46.45,-37.7 -80.03,-37.7l-2855.8 0c-40.26,0 -73.92,14.24 -103.78,41.12 -29.58,26.65 -49.3,58.32 -55.42,96.98l-355.67 2539.95c-0.53,9.55 -2.91,18.75 -7.29,27.01 1.72,26.74 11.98,48.91 31.58,68.47 23.36,23.29 53.38,31.31 85.6,31.78 -3.92,-9.91 -6.21,-20.51 -6.95,-31.93 4.38,-8.27 6.76,-17.47 7.29,-27.01l355.67 -2539.95c6.12,-38.66 25.83,-70.32 55.42,-96.98 29.85,-26.88 63.52,-41.12 103.78,-41.12l2844.02 0zm-1921.02 83.48l-357.52 2525.97c-0.28,7.33 -1.38,14.53 -3.73,21.43 0.53,29.39 10.81,53.37 31.82,74.33 23.35,23.29 53.39,31.31 85.6,31.78 -4.58,-11.59 -6.94,-24.1 -7.19,-37.8 2.35,-6.9 3.45,-14.1 3.73,-21.43l359.45 -2539.6c2.01,-14.25 -1.84,-27.3 -11.28,-38.17 -9.44,-10.87 -21.83,-16.52 -36.22,-16.52l-64.67 0zm1198.21 0l-357.51 2525.98c-0.29,7.33 -1.4,14.53 -3.75,21.42 0.5,29.3 10.12,53.71 30.63,75.06 22.92,23.85 53.74,31.07 85.99,31.07l0.38 0c-4.34,-11.68 -6.54,-24.22 -6.77,-37.82 2.35,-6.89 3.46,-14.09 3.75,-21.42l359.44 -2539.61c2.01,-14.25 -1.84,-27.3 -11.28,-38.17 -9.44,-10.87 -21.83,-16.52 -36.22,-16.52l-64.67 0zm3234.91 -83.48c-4.83,-10.86 -10.87,-21.33 -17.99,-31.46 -19.05,-27.13 -44.8,-36.85 -77.49,-36.85l-1822.19 0c-40.26,0 -73.93,14.24 -103.79,41.12 -29.58,26.65 -49.3,58.32 -55.42,96.98l-355.67 2539.95c-0.53,9.55 -2.91,18.75 -7.28,27.01 1.72,26.74 11.98,48.91 31.58,68.47 23.36,23.28 53.39,31.31 85.6,31.78 -3.92,-9.91 -6.21,-20.51 -6.95,-31.93 4.37,-8.27 6.75,-17.47 7.28,-27.01l355.67 -2539.95c6.12,-38.66 25.83,-70.32 55.42,-96.98 29.85,-26.88 63.53,-41.12 103.79,-41.12l1807.44 0zm-1106.11 1928.22l-295.18 0 -1.93 13.64c-2.01,14.26 1.85,27.3 11.29,38.17 9.44,10.86 21.83,16.51 36.21,16.51l359.84 0c24.09,0 44.19,-17.5 47.51,-41.36l252.67 -1817.11c1.98,-14.24 -1.89,-27.26 -11.33,-38.1 -9.44,-10.85 -21.81,-16.48 -36.18,-16.48l-64.64 0 -250.76 1803.38c-3.32,23.86 -23.41,41.36 -47.51,41.36zm3183.93 68.32c-5,-10.59 -11.19,-20.77 -18.43,-30.61 -20.11,-27.33 -46.44,-37.7 -80.02,-37.7l-942.17 0 -1.91 13.74c-1.98,14.24 1.89,27.26 11.33,38.1 9.44,10.85 21.81,16.48 36.18,16.48l995.01 0zm270.72 -1996.54c1.91,-4.16 3.28,-9.32 4.35,-15.66l2.85 -28.47c-1.9,-7.93 -3.69,-15.99 -5.2,-24.06 -2.89,-0.1 -5.59,-0.12 -7.5,-0.12l-1822.18 0c-40.27,0 -73.94,14.23 -103.8,41.12 -29.59,26.65 -49.29,58.32 -55.42,96.94l-252.66 1817.11c-0.43,3.08 -1.03,5.67 -2.02,8.62 -1.65,4.92 -3.69,10.59 -5.11,15.84 0.91,27.67 10.62,50.25 31.03,69.76 22.94,21.93 50.17,30.61 81.7,30.61l3.35 0c-3.57,-9.9 -5.47,-20.54 -5.85,-32.06 1.42,-5.25 3.46,-10.92 5.11,-15.84 0.99,-2.95 1.59,-5.54 2.02,-8.62l252.66 -1817.11c6.13,-38.62 25.82,-70.28 55.42,-96.94 29.85,-26.89 63.53,-41.12 103.8,-41.12l1717.45 0zm-859.31 2080.01l-21.17 168.86c-3.03,24.13 -23.27,42 -47.6,42l-1309.22 0c-21.33,0 -31.28,1.53 -32.49,23.41 -0.08,1.37 -0.19,2.53 -0.38,3.89l-56.9 412.25c0.09,1.53 0.27,3.26 0.59,4.5 4.03,1.7 13.03,2.09 16.44,2.09l101.73 0 48.38 -350.52c0.19,-1.36 0.3,-2.52 0.38,-3.89 1.21,-21.89 11.17,-23.41 32.49,-23.41l1309.22 0c24.32,0 44.57,-17.87 47.6,-42l22.97 -183.24c1.77,-14.15 -2.2,-27.01 -11.64,-37.71 -9.43,-10.69 -21.71,-16.23 -35.96,-16.23l-64.44 0zm3022.98 -2098.18l0.86 -8.57c-9.08,-9.89 -15.72,-21.7 -18.09,-35.83 -0.31,-1.91 -0.61,-3.82 -0.87,-5.74l-1818.01 0c-22.08,0 -29.07,6.18 -32.84,27.22l-3.45 34.43c-0.18,7.01 -1.02,13.93 -2.51,20.19 6.48,1.33 15.64,1.64 19.66,1.64l99.72 0c4.51,-11.46 12.57,-15.17 29.66,-15.17l1718.54 0c3.07,-5.04 5.35,-11.18 7.34,-18.18zm-1377.11 101.66l-357.51 2525.98c-0.29,7.33 -1.4,14.53 -3.75,21.43 0.53,29.38 10.81,53.36 31.83,74.32 23.35,23.3 53.39,31.31 85.6,31.78 -4.58,-11.59 -6.95,-24.1 -7.2,-37.79 2.35,-6.9 3.46,-14.1 3.75,-21.43l359.44 -2539.61c2.01,-14.25 -1.84,-27.3 -11.28,-38.17 -9.44,-10.87 -21.83,-16.52 -36.22,-16.52l-64.67 0zm3641.52 -83.48c-4.66,-11.13 -10.52,-21.91 -17.52,-32.37 -19.07,-28.52 -49.73,-35.94 -82.61,-35.94l-1699.7 0c-40.26,0 -73.93,14.24 -103.79,41.12 -29.59,26.65 -49.29,58.32 -55.42,96.98l-355.53 2538.99c0.41,34.36 7.45,68.51 27.56,97.02 18.64,26.41 55.35,31.22 85.22,31.22l6.57 0c-6.29,-19.15 -8.88,-39.49 -9.12,-59.93l355.53 -2538.99c6.13,-38.66 25.82,-70.32 55.42,-96.98 29.85,-26.88 63.53,-41.12 103.79,-41.12l1689.59 0zm-1042.38 2080.01l-81.64 529.07c0.48,34.32 8.01,67.76 28.81,95.76 19.94,26.84 56.6,32.17 87.81,32.17l3.36 0c-6.66,-18.91 -9.46,-39.1 -9.75,-59.62l83.65 -542.1c2.21,-14.33 -1.56,-27.54 -11,-38.54 -9.44,-11.01 -21.92,-16.75 -36.41,-16.75l-64.84 0zm-26.26 -151.79l-291.41 0 -1.9 13.84c-1.94,14.23 1.95,27.22 11.38,38.04 9.44,10.82 21.8,16.44 36.15,16.44l356.01 0c24.06,0 44.14,-17.44 47.5,-41.26l256.47 -1817.11c2.01,-14.26 -1.85,-27.3 -11.29,-38.17 -9.44,-10.86 -21.83,-16.51 -36.21,-16.51l-64.67 0 -254.54 1803.48c-3.36,23.82 -23.43,41.26 -47.5,41.26zm3236.6 227.66c-58.09,-54.26 -160,-91.4 -238.1,-114.13l-0.03 0.83c-0.67,22.91 14.39,42.64 36.66,48.03 44.81,10.85 127.1,32 201.47,65.27zm342.49 -2155.88c-4.83,-10.86 -10.87,-21.32 -17.99,-31.46 -19.05,-27.13 -44.82,-36.85 -77.5,-36.85l-1822.19 0c-40.26,0 -73.93,14.24 -103.79,41.12 -29.59,26.65 -49.29,58.32 -55.42,96.98l-355.67 2539.95c-0.53,9.55 -2.91,18.75 -7.28,27.01 1.72,26.74 11.98,48.91 31.58,68.47 23.36,23.28 53.39,31.31 85.6,31.78 -3.92,-9.91 -6.21,-20.51 -6.95,-31.93 4.37,-8.27 6.75,-17.47 7.28,-27.01l355.67 -2539.95c6.13,-38.66 25.82,-70.32 55.42,-96.98 29.85,-26.88 63.53,-41.12 103.79,-41.12l1807.45 0zm-1106.96 2083.47c9.19,17.53 14.37,38.7 14.37,64.01 0,2.37 -0.14,4.4 -0.48,6.75l-64.67 455.25c-0.29,7.32 -1.4,14.51 -3.74,21.39 0.49,29.31 10.11,53.73 30.62,75.08 22.92,23.85 53.73,31.07 85.98,31.07l0.39 0c-4.34,-11.68 -6.53,-24.23 -6.76,-37.84 2.34,-6.88 3.45,-14.07 3.74,-21.39l64.67 -455.25c0.34,-2.35 0.48,-4.38 0.48,-6.75 0,-82.7 -55.35,-121.29 -124.6,-132.32zm299.09 -1999.99l-235.54 1682.03c-16.88,107.69 -89.26,162.7 -196.7,162.7l-161.19 0 -1.93 13.64c-2.01,14.26 1.85,27.3 11.29,38.17 9.44,10.86 21.83,16.51 36.21,16.51l225.86 0c107.44,0 179.82,-55.02 196.7,-162.7l237.46 -1695.73c1.99,-14.24 -1.88,-27.27 -11.32,-38.13 -9.44,-10.85 -21.82,-16.49 -36.19,-16.49l-64.65 0zm1699.81 2275.71c-4.83,-10.85 -10.87,-21.32 -17.99,-31.45 -19.1,-27.21 -44.92,-36.86 -77.49,-36.86l-547.42 0c-40.27,0 -73.94,14.23 -103.8,41.12 -28.78,25.92 -47.3,56.6 -51.38,95.36 -0.11,1.02 -0.23,1.88 -0.4,2.88l-30.63 183.24c-0.62,3.74 -1.59,7.22 -2.92,10.49 -0.32,4 -0.25,8.63 -0.25,12.15 0,28.74 13.15,50.05 34.76,68.42 24.1,20.48 50.75,31.64 82.06,32.44 -4.27,-9.77 -6.59,-20.5 -6.59,-32.54 0,-3.52 -0.07,-8.15 0.25,-12.15 1.33,-3.27 2.3,-6.75 2.92,-10.49l30.63 -183.24c0.17,-1 0.29,-1.86 0.4,-2.88 4.08,-38.76 22.6,-69.43 51.38,-95.36 29.85,-26.89 63.53,-41.12 103.8,-41.12l532.66 0zm1554.23 -2359.19c-4.83,-10.86 -10.87,-21.33 -17.99,-31.46 -19.05,-27.13 -44.82,-36.85 -77.5,-36.85l-547.41 0c-40.27,0 -73.94,14.23 -103.8,41.12 -29.59,26.65 -49.29,58.32 -55.43,97.05l-359.44 2539.61c-0.29,7.33 -1.4,14.52 -3.75,21.42 0.53,29.39 10.8,53.37 31.82,74.33 23.36,23.29 53.38,31.31 85.6,31.78 -4.58,-11.59 -6.94,-24.1 -7.19,-37.8 2.35,-6.9 3.46,-14.09 3.75,-21.42l359.44 -2539.61c6.14,-38.73 25.83,-70.39 55.43,-97.05 29.85,-26.89 63.53,-41.12 103.8,-41.12l532.66 0zm2438.52 0c-4.83,-10.86 -10.87,-21.33 -17.99,-31.46 -19.05,-27.13 -44.82,-36.85 -77.5,-36.85l-1822.19 0c-40.26,0 -73.93,14.24 -103.79,41.12 -29.58,26.65 -49.3,58.32 -55.42,96.98l-355.67 2539.95c-0.53,9.55 -2.91,18.75 -7.28,27.01 1.72,26.74 11.98,48.91 31.58,68.47 23.36,23.28 53.39,31.31 85.6,31.78 -3.92,-9.91 -6.21,-20.51 -6.95,-31.93 4.37,-8.27 6.75,-17.47 7.28,-27.01l355.67 -2539.95c6.12,-38.66 25.83,-70.32 55.42,-96.98 29.85,-26.88 63.53,-41.12 103.79,-41.12l1807.45 0zm-1201.81 2607.72l-295.19 0 -1.93 13.65c-2.01,14.25 1.85,27.29 11.29,38.16 9.44,10.86 21.83,16.51 36.21,16.51l359.85 0c24.08,0 44.18,-17.49 47.51,-41.34l348.35 -2496.62c1.99,-14.24 -1.89,-27.27 -11.32,-38.12 -9.44,-10.84 -21.82,-16.48 -36.19,-16.48l-64.64 0 -346.44 2482.9c-3.33,23.85 -23.42,41.34 -47.51,41.34z"/>
   <path class="fil2" d="M11424.41 3561.34l682.74 0c122.8,0 239.1,41.58 331.18,123.43l0.45 0.4c1.45,1.29 2.89,2.58 4.32,3.89l2.37 2.17c100.18,-84.11 222.73,-129.89 354.56,-129.89l1822.19 0c109.97,0 214.94,33.22 301.29,99.49 92.17,-64.68 200.09,-99.49 315.04,-99.49l1822.18 0c57.62,0 115.15,9.77 168.35,30.72 52.07,-20.55 107.97,-30.72 164.7,-30.72l1822.18 0c80.78,0 157.62,19.49 223.6,62.71 77.79,-41.03 164.2,-62.71 254.9,-62.71l1699.7 0c125.78,0 246.2,40.83 339.59,126.48 0.45,0.41 0.89,0.81 1.34,1.22 99.69,-82.72 221.26,-127.7 351.95,-127.7l1822.19 0c123.93,0 241.56,42.21 333.3,126.36 120.26,110.3 240.54,220.57 360.81,330.87 26.11,23.94 49.5,50.77 69.86,79.76 67.09,95.54 103.73,206.27 103.73,323.23 0,16.31 -1.13,32.56 -3.4,48.71l-203.83 1450.25 231.48 0c63.1,0 124.54,10.95 181.77,32.79 88.9,-638.57 177.8,-1277.14 272.32,-1914.91 19.42,-130.98 84.66,-245.45 182.65,-333.7 102.91,-92.68 231.36,-143.37 370.07,-143.37l547.41 0c109.96,0 214.94,33.23 301.29,99.49 92.16,-64.69 200.08,-99.49 315.03,-99.49l1822.19 0c123.92,0 241.53,42.22 333.28,126.34 120.27,110.3 240.55,220.59 360.83,330.88 26.11,23.95 49.5,50.78 69.86,79.77 67.09,95.54 103.73,206.27 103.73,323.23 0,16.42 -1.16,32.78 -3.46,49.03l-360.09 2544.17c-0.07,0.46 -0.12,0.85 -0.19,1.31 -19.75,131.18 -82.48,247.62 -181.23,336.23 -102.3,91.8 -230.2,141.04 -367.69,141.04l-1818.36 0c-111.69,0 -218.32,-31.39 -307.72,-95.49 -90.31,62.57 -196.26,95.49 -308.6,95.49l-547.42 0c-124.14,0 -242.05,-38.79 -336.99,-118.16 -97.39,77.08 -214.98,118.16 -340.59,118.16l-543.6 0c-124.43,0 -240.93,-42.77 -336.63,-121.54 -98.19,79.26 -217.37,121.54 -344.79,121.54l-543.6 0c-130.25,0 -253.86,-42.78 -350.48,-131.39l-10.78 -9.88c-101.27,92.2 -228.91,141.27 -366.07,141.27l-547.43 0c-127.41,0 -248.26,-40.85 -344.44,-124.51 -98.89,81.17 -219.45,124.51 -348.44,124.51l-505.32 0c-128.66,0 -252.45,-39.5 -348.28,-127.37l-15.05 -13.8c-0.05,0.04 -0.09,0.08 -0.14,0.13 -102.3,91.8 -230.22,141.04 -367.7,141.04l-463.21 0c-127.58,0 -250.59,-38.95 -345.64,-126.12 -89.46,-82.05 -178.94,-164.1 -268.42,-246.15 -31.08,88.35 -83.7,167.08 -155.19,231.23 -102.3,91.8 -230.2,141.04 -367.69,141.04l-543.6 0c-131.8,0 -256.57,-43.7 -354.28,-133.31l-187.82 -172.22c-28.63,57.68 -67.17,110.34 -114.97,156.3 -103.54,99.56 -237.42,149.24 -380.36,149.24l-1818.36 0c-105.77,0 -208.24,-35.63 -286.68,-107.56l-360.82 -330.88c-81.45,-74.69 -125,-177.47 -128.14,-286.89l-453.44 0 -36.37 246.96c-19.02,129.15 -79.4,244.53 -175.11,333.37 -101.92,94.6 -231.13,145 -370.14,145l-547.42 0c-127.41,0 -248.25,-40.85 -344.43,-124.51 -98.89,81.17 -219.46,124.51 -348.45,124.51l-467.04 0c-130.25,0 -253.87,-42.78 -350.49,-131.39l-9.84 -9.02c-102.18,91.39 -229.85,140.41 -367.01,140.41l-110.78 0c-132.02,345.15 -347.74,668.53 -602.8,931.79 -155.01,159.98 -405.92,180.67 -570,21.93l-563.84 -545.52c-2,-1.93 -3.97,-3.89 -4.43,-4.38l-0.14 -0.14c-125.88,-125.89 -143.06,-311.23 -62.02,-464.87 -13.5,-7.22 -26.68,-15.07 -39.53,-23.54 -31.87,27.45 -68.67,49.14 -108.71,63.7l55.28 1864.22c2.02,68.04 -6.04,136.07 -23.4,201.86 -37.94,143.78 -118.98,272.97 -225.97,375.51 -251.17,240.69 -655.46,334.21 -947.86,108.2l-1891.36 -1461.87c-10.64,3.38 -22.22,8.41 -28.31,11.98l-2695.64 1579.29c-262.36,153.71 -602.42,162.84 -830.9,-58.22l-563.84 -545.52c-10.88,-10.53 -21.38,-21.46 -31.46,-32.75 -189.27,-212.04 -190.63,-507.71 -61.12,-750.61l502.98 -943.28c-105.31,-88.01 -207.56,-179.66 -306.19,-275.09l-563.84 -545.52c-5.33,-5.15 -10.64,-10.33 -15.94,-15.51 -1.03,-1.01 -2.07,-2.01 -3.1,-3.01 -236.54,-231.12 -452.13,-484.6 -634.75,-760.56 -71.61,-108.21 -137.94,-219.95 -198.02,-334.98 -267.81,-512.77 -408.47,-1086.21 -319.1,-1664.06 49.8,-321.94 168.69,-624.82 346.34,-897.58 487.24,-748.06 1335.42,-1165.53 2183.13,-1359.3 488.24,-111.61 991.84,-155.09 1492.16,-147.1 458.84,7.33 916.92,58.15 1367.12,146.92l970.09 -1564.04c111.14,-179.19 284.52,-314.84 487.93,-372.57 201.95,-57.31 429.86,-31.11 598.15,100.37 16.04,12.53 31.42,25.89 46.05,40.05l563.84 545.52c99.99,96.74 158.7,223.77 175.04,361.35l231.33 1946.71 2172.19 40.64c155.9,2.91 305.4,56.35 419.1,164.23 1.42,1.32 2.83,2.66 4.23,4.02l340.86 329.77zm5183.98 1210.15l-109.34 786.39 198.02 0c125.51,0 243.05,42.53 335.93,127.71l172.68 158.35 151.79 -1072.45 -749.08 0zm-2100.17 1846.56l-749.78 0 -55.24 375.08c-14.05,95.41 -58.06,179.66 -128.77,245.3 -74.19,68.88 -166.92,104.95 -268.11,104.95l-547.42 0c-94.19,0 -182.96,-29.72 -252.93,-93.88l-100.71 -92.35c-19.77,30.46 -43.75,58.45 -71.71,83.55 -74.79,67.12 -167,102.68 -267.53,102.68l-467.04 0c-92.62,0 -180.29,-28.81 -249.14,-91.95l-126.59 -116.08c-21.38,38.98 -49.57,74.39 -84.08,105.37 -74.79,67.11 -167.01,102.67 -267.53,102.67l-216.52 0c-119.55,362.78 -341.49,705.67 -604.76,977.4 -97.48,100.6 -253.41,119.71 -358.01,18.51l-563.84 -545.52c-0.99,-0.96 -1.96,-1.93 -2.66,-2.65l-0.14 -0.14c-81.98,-81.98 -86.36,-200.85 -30.06,-298.57 28.31,-49.14 54.8,-99.31 79.25,-150.46 -80.95,-6.61 -156.47,-36.38 -217.61,-92.46l-71.81 -65.86c-18.91,92.69 -100.12,159.75 -195.88,159.75l-34.04 0 59.24 1997.6c1.59,53.66 -4.81,107.25 -18.51,159.15 -30.88,117.03 -97.73,222.11 -184.74,305.49 -196.76,188.56 -520.07,277.39 -752.39,97.82l-1919.01 -1483.25c-41.47,-32.05 -129.18,-0.23 -168.18,22.62l-2695.64 1579.29c-203.37,119.14 -471.53,136.86 -650.81,-36.6l-563.84 -545.52c-8.26,-7.99 -16.21,-16.28 -23.85,-24.83 -147.27,-165 -140.5,-392.95 -40.67,-580.18l560.91 -1051.93c-135.88,-108.88 -267.05,-223.72 -392.17,-344.79l-563.84 -545.52c-5.15,-4.98 -10.27,-9.98 -15.4,-14.99 -1.03,-1.01 -2.07,-2.01 -3.11,-3.02 -228.89,-223.65 -437.77,-469.02 -614.5,-736.06 -68.76,-103.9 -132.47,-211.2 -190.15,-321.64 -252.8,-484 -388.24,-1025.9 -303.82,-1571.71 46.58,-301.13 157.64,-583.55 323.8,-838.66 465.04,-713.97 1282.64,-1110.2 2090.89,-1294.96 476.15,-108.84 968.42,-151.14 1456.33,-143.35 484.22,7.74 968.04,64.99 1441.91,164.78l1025.15 -1652.81c91.43,-147.41 233.99,-259.82 401.43,-307.34 155.98,-44.26 334.22,-27.8 464.88,74.27 11.88,9.28 23.27,19.18 34.1,29.65l563.84 545.52c75.11,72.67 118.13,167.98 130.4,271.27l246.76 2076.51 2302.87 43.08c118.28,2.21 232.29,41.09 318.95,123.34 0.74,0.68 1.27,1.18 1.09,1.02 0.61,0.57 1.22,1.15 1.82,1.73l384.46 371.96 743.42 0c86.12,0 166.99,28.17 231.55,85.55l0.45 0.4c0.86,0.77 1.73,1.54 2.59,2.33l113.55 104.13c20.63,-31.96 45.82,-61.26 75.04,-87.57 75.36,-67.89 168.05,-104.84 269.7,-104.84l1822.19 0c86.42,0 167.93,28.22 231.92,86.9l70.04 64.24c13.67,-16.39 28.59,-31.84 44.66,-46.31 75.36,-67.88 168.07,-104.83 269.71,-104.83l1822.18 0c59.24,0 119.9,14.63 167.7,50.24 46.83,-32.99 104.08,-50.24 165.35,-50.24l1822.18 0c62.83,0 121.93,16.5 169.07,59.73l44.53 40.84c74.49,-65.17 165.4,-100.57 264.9,-100.57l1699.7 0c88.04,0 172.61,26.86 238.23,87.04 37.26,34.17 74.51,68.34 111.78,102.51 20.29,-30.86 44.84,-59.2 73.17,-84.72 75.36,-67.88 168.05,-104.83 269.7,-104.83l1822.19 0c86.43,0 167.95,28.23 231.93,86.91 120.26,110.31 240.55,220.58 360.82,330.88 18.15,16.64 34.34,35.27 48.49,55.42 49.36,70.29 76.49,150.93 76.49,237.05 0,9.36 -0.64,18.56 -1.94,27.83l-226.04 1608.35c-0.06,0.42 -0.11,0.77 -0.18,1.19 -0.59,3.87 -1.23,7.72 -1.92,11.56l404.3 0c86.41,0 167.91,28.23 231.89,86.9 21.55,19.75 43.09,39.5 64.63,59.26 100.2,-719 199.5,-1438.15 305.92,-2156.26 14.29,-96.43 62.61,-179.36 134.66,-244.25 75.36,-67.89 168.06,-104.84 269.71,-104.84l547.41 0c86.42,0 167.94,28.23 231.93,86.91 23.34,21.42 46.69,42.82 70.04,64.23 13.66,-16.39 28.58,-31.83 44.64,-46.3 75.37,-67.89 168.06,-104.84 269.71,-104.84l1822.19 0c86.42,0 167.94,28.23 231.92,86.91 120.28,110.29 240.55,220.58 360.83,330.88 18.15,16.64 34.34,35.27 48.49,55.42 49.36,70.29 76.49,150.93 76.49,237.05 0,9.43 -0.66,18.69 -1.98,28.01l-360.09 2544.17c-14.57,96.77 -60.26,181.58 -133.09,246.94 -74.79,67.13 -166.99,102.69 -267.53,102.69l-1818.36 0c-94.19,0 -182.97,-29.72 -252.93,-93.88l-56.67 -51.97c-11.87,14.38 -24.75,28.02 -38.6,40.88 -74.19,68.89 -166.94,104.97 -268.13,104.97l-547.42 0c-94.2,0 -182.98,-29.74 -252.95,-93.9l-91.15 -83.59c-18.65,27.14 -40.71,52.18 -65.95,74.82 -74.8,67.12 -166.99,102.67 -267.53,102.67l-543.6 0c-91.77,0 -176.38,-32.14 -246.21,-91.45 -3.75,-3.18 -7.43,-6.43 -11.05,-9.75l-87.8 -80.51c-19.24,28.74 -42.27,55.2 -68.83,79.02 -74.79,67.13 -166.99,102.69 -267.53,102.69l-543.6 0c-92.62,0 -180.28,-28.81 -249.13,-91.95l-128.18 -117.54c-21.14,38.46 -48.56,73.57 -81.91,104.55 -74.19,68.88 -166.93,104.95 -268.11,104.95l-547.43 0c-94.19,0 -182.96,-29.72 -252.93,-93.88l-100.62 -92.28c-19.82,30.44 -43.86,58.4 -71.8,83.47 -74.79,67.13 -166.99,102.69 -267.53,102.69l-505.32 0c-90.84,0 -179.06,-25.7 -246.93,-87.94l-131.48 -120.56c-21.97,39.15 -50.55,74.69 -85.23,105.82 -74.79,67.13 -167,102.69 -267.53,102.69l-463.21 0c-89.72,0 -177.21,-25.17 -244.28,-86.68 -120.26,-110.3 -240.55,-220.58 -360.82,-330.88 -16.25,-14.9 -30.81,-31.52 -43.52,-49.54 -24.96,-35.39 -43.03,-73.73 -54.94,-113.98l-32.77 231.48c-14.57,96.76 -60.26,181.56 -133.08,246.91 -74.79,67.13 -166.99,102.69 -267.53,102.69l-543.6 0c-94.19,0 -182.96,-29.71 -252.93,-93.87l-360.82 -330.88c-3.57,-3.28 -7.08,-6.63 -10.51,-10.05l-12.46 84.55c-13.8,93.73 -55.94,177.14 -124.3,242.88 -75.55,72.65 -172.29,107.37 -276.41,107.37l-1818.36 0c-68.09,0 -134.65,-21.65 -185.32,-68.12l-360.82 -330.88c-53.55,-49.11 -79.71,-117.02 -79.71,-189.1 0,-9.19 0.62,-18.23 1.88,-27.33l15.17 -109.9zm2805.8 -469.43l220.92 -1560.91c-41.69,22.31 -89.59,33.81 -140.18,33.81l-916.93 0 -151.04 1086.32 370.28 0c86.39,0 167.99,27.9 232.29,86.22l0.14 0.13c0.72,0.64 1.43,1.27 2.14,1.92l360.82 330.88c7.51,6.89 14.7,14.11 21.56,21.63zm-14683.32 936.27l491.74 -921.04c14.09,-26.38 32.08,-77.51 21.91,-110.44l-996.63 -950.23c-98.62,216.86 -140.57,449.04 -119.49,691.12 40.98,470.65 306.2,921.42 602.48,1290.59zm-21.96 -277.3l374.19 -700.87 -771.66 -735.73c-34.33,132.92 -45.84,270.31 -33.65,410.3 31.86,365.88 214.55,721.85 431.13,1026.3z"/>
  </g>
 </g>
</svg>
